<?xml version="1.0" encoding="UTF-8"?>
<svg version="1.1" viewBox="0 0 800 800" width="1280" height="1280" xmlns="http://www.w3.org/2000/svg">
<path transform="translate(0)" d="m0 0h800v800h-800z" fill="#FDB300"/>
<path transform="translate(0)" d="m0 0h800v800h-800zm206 96-15 2-16 4-15 6-12 6-12 8-11 9-13 13-4 6v2h-2l-6 9-8 16-4 9-6 23-2 22v385l3 21 4 16 5 13 8 16 12 16 9 10 7 6 5 5 15 10 16 8 18 6 15 3 14 1h381l16-2 17-4 13-5 16-8 14-10 13-12 9-10 9-13 11-21 6-19 3-17v-408l-3-18-6-19-8-16-7-11-8-10-9-10-10-9-18-12-17-8-15-5-9-2-17-2z" fill="#FDFDFD"/>
<path transform="translate(206,96)" d="m0 0h386l21 3 17 5 12 5 13 7 14 10 10 9 11 12 9 13 6 10 7 17 5 18 2 13v408l-3 17-7 21-11 21-10 13-9 10-12 11-13 9-16 8-16 6-19 4-11 1h-381l-14-1-19-4-16-6-16-8-14-10-10-9-8-8-12-16-8-14-6-15-4-13-3-18-1-9v-385l2-22 4-16 4-11 6-14 10-16h2l2-5 9-10 9-9 14-10 13-8 14-6 13-4 9-2zm93 90-18 2-19 5-18 7-11 6-19 13-15 14-11 13-10 16-8 15-4 10-6 22-2 15v196l3 18 5 18 8 19 11 18 5 7h2l2 5 15 15 5 4h2v2l15 10 15 8 15 6 25 6 14 1h201l17-2 21-5 15-6 17-9 11-8 13-11 9-9 11-14 8-13 9-19 5-15 3-12 2-14v-196l-4-24-6-18-10-21-8-12-7-9-11-12-12-11-14-9-14-8-20-8-18-4-14-2z" fill="#FD6900"/>
<path transform="translate(528,226)" d="m0 0 7 1 16 8 15 10 7 6 14 16 7 11 8 17 5 17 2 10 1 12v177l-3 21-5 16-6 14-9 14-13 15-10 9-11 7-17 9-20 6-16 2h-202l-22-4-19-7-15-9-9-7-10-9-11-13-8-13-1-10h-2l-4-11v-9l-3-1v-8l-1-2v-49h10l7 3 6-1 6-3 3-6h12l16-3 11-5 3-5 4 4 1 8 3 6 2 9 2 1 2 7 3-1 7 12 10 13 3 3v2l4 2 9 9 13 9 17 9 13 5 21 5 23 1 20-2 19-5 16-7 10-6 7-4 11-9 6-5 1-2h2l2-4 9-11 8-13 8-16 6-20 2-11 1-13v-12l-1-15-4-17-6-17-10-19-7-9-1-7 3-2v-16l-4-4 4-4 4 1 5 5 8 4 3 1h10l10-4 5-4 4-6 2-6 1-17-2-7-8-6v-2l-6-1-1-2h-9l-7-1v-3h-3l-1-9-1-5 5-5 3-4v-3l-4-1-1-4z" fill="#FD6900"/>
<path transform="translate(206,96)" d="m0 0h386v1l-82 1-27 1h-20l-16 1-2 3-3 4v3l5 1 1 4v11l-2 4v14l2 2v12l-2 4v11l-3 1-2 7h-3v2l3 1 69 1 6 2v1l-12-1h-205l-18 2-19 5-18 7-11 6-19 13-15 14-9 11-7 10-10 18-4 8-6 20-3 15-1 8v196l3 18 1 8-3-4-2-10-4-3 1-3h2l-1-19v-10l-2-2-1 1h-5l-4-6-2-5h-8l-8 7-5-1-3-4v-3l-10 1-6 7-4-2-8-2-2 10-4 1-1 58-1 9-1 50h-1v-385l2-22 4-16 4-11 6-14 10-16h2l2-5 9-10 9-9 14-10 13-8 14-6 13-4 9-2z" fill="#FDB300"/>
<path transform="translate(299,186)" d="m0 0h205l24 4 16 5 20 9 14 9 9 7 13 12 10 11 10 15 10 19 6 16 4 17 2 14v196l-3 17-5 19-8 18-7 13-8 11-11 13-9 9-14 11-17 10-13 6-15 5-19 4-12 1h-201l-14-1-25-6-15-6-20-11-10-7v-2l-4-2-10-9-8-8-2-5h-2l-7-10-9-15-9-22-5-19-2-14v-196l2-15 6-22 5-12 9-17 9-13 13-15 13-12 21-14 18-8 18-6 9-2zm-9 34-17 4-15 6-8 4-11 7-9 7v2h-2v2l-4 2v2l-4 2-12 16-7 14-5 12-4 16-2 12v185l3 19 5 16 4 10 10 17 13 15 11 10 11 7 12 7 21 7 18 3h202l16-2 20-6 19-10 11-8 12-11 9-11 9-14 8-19 4-15 2-17v-177l-2-18-4-15-5-13-9-17-9-11-5-6-8-7-9-7-13-8-11-5-15-5-11-2z" fill="#FDFDFD"/>
<path transform="translate(386,320)" d="m0 0h29l17 4 11 5 11 6 14 11 8 8 10 14 8 16 4 13 2 11 1 21-4 20-6 17-7 12-10 13-11 11-17 11-17 7-14 3-8 1h-11l-16-2-16-5-12-5-9-6-11-9-8-8-10-14-8-16-4-13-2-10v-28l4-18 6-15 10-16 6-7h2l2-4 10-9 7-5 16-8 18-5z" fill="#FD8C01"/>
<path transform="translate(392,286)" d="m0 0h16l20 3 14 4 15 6 16 9 13 10 16 16 11 16 9 17 6 17 4 17 1 15v12l-2 18-4 17-5 13-8 16-7 10-8 10-3 4h-2l-2 4-11 9-9 7-11 6-13 6-11 4-19 4-22 1-15-1-21-5-17-7-16-9-12-9-14-14-8-10-9-14-8-16-5-17-3-14-1-19 1-21 5-20 5-14 10-19 12-16 16-16 16-11 16-8 16-6 12-3zm-6 34-17 4-15 6-11 7-13 11-2 4-4 2-10 14-8 16-4 13-2 11v28l4 17 5 12 5 10 8 11 9 10 10 9 10 6 10 5 15 5 9 2 11 1h11l18-3 17-6 14-8 10-8 10-10 10-14 6-12 5-14 4-21-1-20-4-18-5-12-7-13-10-13-8-8-12-9-12-7-14-5-13-3z" fill="#FDFDFD"/>
<path transform="translate(439,221)" d="m0 0h75l13 3 2 2-1 1h-5l1 4h5l-1 5-5 7-2 1 1 5v9h3v3h16l1 3 6 1v2l4 2 5 4 2 8-1 16-4 9-5 6-9 5-4 1h-10l-10-4-6-5-1-2-5 1-1 3 4 3v16l-4 2 1 5-25-25-7-6-6-3-3-3-10-4-4-1v-2l-2-1 1-2-7-1h-11l-1-1-9-2-1-3 5-1 4 1 1-11 1-28 5-5 6-8-1-7z" fill="#FD8B01"/>
<path transform="translate(481,367)" d="m0 0 2 1v5l4 1 2 5 2 1v5l2 4v2l2 1v8l-8 1h-11l-4 5-1 9 1 10 1 3 6-1 2-19h4l2 3 1 13 1-12h2l1 4v11l1-3v-14l1-2h4v7l1 1v24l-4 16-7 16-10 14-9 10-9 8-16 10-15 6-14 3-8 1h-11l-16-2-16-5-5-2v-3l-5-2 3-3 4-1-1-12 5-5 3-1 2-4 7-5 5-5 13-7 9-10 4-5 7-3 4-8h6l3-5 3-7 5-2 8 1 5-3 2-4v-9l3-7 3 1 1 7-1 12 2 2 5 1 1-3v-24h-5l-4 1v-5l7 1 2-1h7l2-1 1-8v-12l4-4z" fill="#FD6900"/>
<path transform="translate(267,452)" d="m0 0 4 4 1 8 3 6 2 9 2 1 2 7 3-1 7 12 10 13 3 3v2l4 2 9 9 13 9 7 4v1h-5l-4-2v-2l-4-2-3-2h-7l-5 2-18 2-3 5-5 2-16 1-7-1-7 6-1 2-9-1-5 6-7 3-8 2-1 12-3 3 3 5 1 3h2l2 4 3 3 6 1 2 7-4-2-12-11-10-12-8-13-1-10h-2l-4-11v-9l-3-1v-8l-1-2v-49h10l7 3 6-1 6-3 3-6h12l16-3 11-5z" fill="#FD8B01"/>
<path transform="translate(510,97)" d="m0 0h90v1l-13 1h-27l-18 1v2l-12 1-5 3 3 4-2 4h-2l1 7 3 8 1 13v16l2 5-1 19-1 3 2 1v2h5v2l9 3 9 4v2l2 1-5-1-15-6-18-4-8-3-73-1 1-4 3-1 1-7h3v-13l2-2v-12l-2-4v-14l2-2v-15h-5l-1-4 6-8 16-1h28z" fill="#FD8B01"/>
<path transform="translate(114,483)" d="m0 0 4 1 3 6 5 1 8-7h8l2 2 3 8 1 1h5l1-6 3 2v35l-2 1 2 4h2v8l2 1 1 6h2l5 15 7 15 6 11 5 7-1 2-3-2v-2l-4-2-2-6-4-7h-10l-3-1v-2l-7-1-7 2h-32l-5-2h-14l-10-4-1 11-1 32v10l-2 3v-59l1-9 1-58 5-1-1-3 1-2 1-5 3-1 7 3h4l5-6z" fill="#FD8B01"/>
<path transform="translate(386,320)" d="m0 0h29l17 4 11 5 11 6 3 3-6-2-6-4-10-3-6-3-9-1v-2h-10l-2 1v2l2 1-5 5-5 2v2l-10 8-3 7-8 5-5 12-12 7-5 5-11 6-1 2v7h7l1 3-2 1 1 4h-4l4 5-2 1-1 4h-1l-1 7-3 2v-2h-2l-1 2h-3v-4l-2 3-5-2 1 2 2 1-8 7-2-1v-2l-4 2-1 3-9-1h-3l-2-3-2 3-1-5 1 7v8h-2l-1-4v-28l4-18 6-15 10-16 6-7h2l2-4 10-9 7-5 16-8 18-5z" fill="#FDB200"/>
<path transform="translate(524,263)" d="m0 0h14l10 5 7 8 3 7v14l-4 9-5 6-9 5-4 1h-10l-10-4-6-5-6-12v-13l4-9 6-7z" fill="#FDFDFD"/>
<path transform="translate(486,370)" d="m0 0 3 4 5 10 4 13 2 11 1 21-1 6h-1l-1-19-1-1 1-7h-4v17l-3 3v-16h-2v12l-2 1-1-14-1-3h-4l-1 19-1 1h-6l-2-3-1-16 3-6 3-3h19v-8h-4l1-6-2-1 1-5-3-1z" fill="#FD9B01"/>
<path transform="translate(369,399)" d="m0 0 2 3 3 1v2l4 1v2l3 1-2 4v7h1v6l-4 1h-8-4l-1-2h-3l1-15 2-3v3l2-1-1-2 3-6z" fill="#FDB000"/>
<path transform="translate(476,400)" d="m0 0h10l-1 2 2 1v3h-3v2h-3l-1 19-1 1h-6l-2-3-1-16 3-6z" fill="#FD8F01"/>
<path transform="translate(461,376)" d="m0 0 6 1 5 4v2h2l1-3 1 1v12l-2 4-3 1-6-1 5-7v-6l-4-4-7 1-1 1v5l2-4 5-1 3 3-1 7-3 2-8-1-2-3v-8l4-5z" fill="#FD8B01"/>
<path transform="translate(461,373)" d="m0 0 8 1 5 5v4h-2l-5-5-6-1-5 3-1 2v8l1 2 8 1 3-3v-5l-2-2-5 1-1 5-2-2v-5l4-3h5l5 5v6l-4 5-8 2-5-3-4-5 1-9 5-5 5-1z" fill="#FEB400"/>
<path transform="translate(371,405)" d="m0 0h3l1 5 1 1 1 14-6-1h-3v-12l4-5-2-1z" fill="#FD8B02"/>
<path transform="translate(416,321)" d="m0 0 12 2 14 5 15 9-2 1-9-5-7-3-10-4-9-1v-2h-4z" fill="#FEB400"/>
<path transform="translate(558,284)" d="m0 0h1v16l-3 8-6 5-4 4h-2v2l-8-1 4-2 10-6 5-7 2-6z" fill="#FD9E01"/>
<path transform="translate(539,261)" d="m0 0 3 1v2l6 1v2l4 2 5 4 2 8-2 2-5-10-7-6-7-3-14-1v-1z" fill="#FDA400"/>
<path transform="translate(530,226)" d="m0 0 10 3 13 7 1 4h-2v-3l-8-2v-2l-4 1-1 3-3-1v-6l-6-2z" fill="#FD9701"/>
<path transform="translate(453,296)" d="m0 0 10 3 3 2v2l4 1 8 6 6 5h-3l-13-9-15-8z" fill="#FEB400"/>
<path transform="translate(532,188)" d="m0 0h4v2l9 3 9 4v2l2 1-5-1-15-6-8-2z" fill="#FD9501"/>
<path transform="translate(215,577)" d="m0 0 3 1v2l4 2 1 3h2l2 4 3 3 6 1 2 7-4-2-12-11-7-8z" fill="#FD9F00"/>
<path transform="translate(374,405)" d="m0 0 4 1v2l3 1-2 4v7h1v6l-4-1-1-14-2-2z" fill="#FDB300"/>
<path transform="translate(390,521)" d="m0 0h20l5 1v1l-8 1h-11l-11-1v-1z" fill="#FD9B01"/>
<path transform="translate(555,238)" d="m0 0 11 7 7 6 3 3-1 2-4-2-4-5-6-5h-6l-2 1z" fill="#FD9501"/>
<path transform="translate(386,556)" d="m0 0h30v1l-10 2h-13l-7-2z" fill="#FD9A01"/>
<path transform="translate(383,406)" d="m0 0 5 1-2 2-1 13-2 4-2-1v-15l3-2-2-1z" fill="#FEB400"/>
<path transform="translate(471,387)" d="m0 0 4 2 1 4-2 4-3 1-6-1 5-7z" fill="#FD8801"/>
<path transform="translate(489,412)" d="m0 0h2l1 4v10l-1 2h-4z" fill="#FD7300"/>
<path transform="translate(175,578)" d="m0 0h2l8 14 2 4-4-2v-2l-4-2-2-6-2-3z" fill="#FD9901"/>
<path transform="translate(307,522)" d="m0 0 4 2 4 3-1 4h-5l-2-5z" fill="#FE6800"/>
<path transform="translate(328,410)" d="m0 0h2v7l-1 2h-5l-1-5 2-2h3z" fill="#FD8B02"/>
<path transform="translate(508,306)" d="m0 0 7 6 8 4 3 2-4 1-6-2v-2l-4-1-3-3z" fill="#FDA100"/>
<path transform="translate(498,321)" d="m0 0 5 1 1 3-4 4-4-4z" fill="#FE6800"/>
<path transform="translate(317,528)" d="m0 0 5 2 8 6 7 4v1h-5l-4-2v-2l-4-2-3-2v-2l-4-2z" fill="#FDA100"/>
<path transform="translate(498,408)" d="m0 0h2l1 21-1 6h-1l-1-19-1-1z" fill="#FD9F01"/>
<path transform="translate(353,409)" d="m0 0 2 1v18l-5 1 3-5z" fill="#FDB200"/>
<path transform="translate(486,370)" d="m0 0 3 4 5 10 1 6-3-2v-2l-2-1 1-5-3-1z" fill="#FD9F00"/>
<path transform="translate(307,408)" d="m0 0 2 2-1 1-1 7 3 1-1 3-4 3-1-2 1-4v-8z" fill="#FD8B02"/>
<path transform="translate(302,441)" d="m0 0 3 3 3 13 1 3-2 1-5-15z" fill="#FEB400"/>
<path transform="translate(397,321)" d="m0 0h4l-1 5 2 1-1 1h-5l-2-4z" fill="#FD8B02"/>
<path transform="translate(524,372)" d="m0 0 3 3 1 3-1 2h2l2 10-2 1-5-16z" fill="#FD9E01"/>
<path transform="translate(550,268)" d="m0 0 7 5 2 8-2 2-5-10-2-2z" fill="#FD9801"/>
<path transform="translate(510,345)" d="m0 0 3 1 4 7h2v5l-2 1-7-12z" fill="#FD9B01"/>
<path transform="translate(534,400)" d="m0 0 2 4 1 4-2 3h-2l-1-10z" fill="#FD8601"/>
<path transform="translate(544,193)" d="m0 0 8 3 2 1v2l2 1-5-1-10-4z" fill="#FD9E01"/>
<path transform="translate(194,605)" d="m0 0 7 6 4 5-5 1-2-2 2-2-7-6z" fill="#FD9701"/>
<path transform="translate(300,424)" d="m0 0h1l2 8v8h-2l-1-4z" fill="#FEB400"/>
<path transform="translate(368,516)" d="m0 0 14 4 2 2-8-1-10-3z" fill="#FD9E01"/>
<path transform="translate(208,619)" d="m0 0 5 3 3 2v2l5 2-3 1-5-3-5-5z" fill="#FD9D00"/>
<path transform="translate(304,516)" d="m0 0 4 2 8 8-4 1-5-7-3-2z" fill="#FDA700"/>
<path transform="translate(556,200)" d="m0 0 7 1 6 3 1 4-5-2-9-5z" fill="#FDA100"/>
<path transform="translate(480,402)" d="m0 0 7 1v3h-7z" fill="#FE6800"/>
<path transform="translate(382,400)" d="m0 0h7v3h-8v2h-3l-1-3 3-1 2 1z" fill="#FEB400"/>
<path transform="translate(492,389)" d="m0 0 4 1 1 10-5 1 3-1v-8h-4z" fill="#FD8B01"/>
</svg>
