<?xml version="1.0" encoding="UTF-8"?>
<svg version="1.1" viewBox="0 0 2048 1139" width="1280" height="1280" xmlns="http://www.w3.org/2000/svg">
<path transform="translate(0)" d="m0 0h2048v1139h-2048z" fill="#FAFAFA"/>
<path transform="translate(990,44)" d="m0 0h66l40 4 31 5 38 9 43 14 24 10 20 9 24 12 17 10 24 15 18 13 12 9 11 9 10 8 12 11 8 7 22 22 7 8 12 14 13 16 13 18 12 18 8 13 14 24 13 26 12 29 11 30 10 35 6 28 5 31 3 30 1 44-1 32-3 31-4 26-7 33-8 28-13 38-13 30-12 24-13 23-13 20-13 19-9 12-9 11-11 13-7 8-11 12-21 21-11 9-10 9-14 11-13 10-14 10-22 14-21 12-29 15-30 13-34 12-32 9-32 7-25 4-37 4h-66l-32-3-37-6-32-7-36-11-25-9-30-13-30-15-17-10-22-14-20-14-14-11-13-11-11-9-16-15-16-16-7-8-12-13-22-28-12-17-20-32-12-22-8-16-9-20-9-23-12-36-7-26-7-36-4-31-2-34v-40l2-34 5-37 9-41 9-30 10-29 14-32 10-21 13-23 14-22 11-16 11-15 13-16 13-15 11-12 21-21 8-7 11-10 14-11 15-12 19-13 17-11 15-9 28-15 24-11 28-11 40-13 24-6 31-6 29-4z" fill="#DA872B"/>
<path transform="translate(761,233)" d="m0 0h528l14 3 16 6 15 10 7 7 9 14 6 14 2 9v544l-4 15-8 16-9 11-10 9-14 8-11 4-20 3h-139l-1-1v-222l75-1 9-3 8-6 6-9 3-10 4-33 5-39v-15l-5-10-5-6-14-7-86-1v-65l3-12 4-6 8-4 9-2 18-1 45-1 8-4 9-9 4-9 1-5v-69l-3-10-4-6-2-4-14-7-3-1h-82l-22 3-19 5-19 8-16 9-14 11-12 12-11 15-7 12-8 20-5 18-4 27-1 76-1 1-54 1-12 6-7 7-4 7-2 11v79l4 11 6 8 8 6 10 3 53 1v222h-33l-13 1-5-1h-8l-5 1-183-1-12-2-15-5-13-8-10-9-9-11-7-14-3-9-2-12v-536l4-16 8-16 8-11 7-7 16-10 13-5z" fill="#D67626"/>
<path transform="translate(1041,45)" d="m0 0h28l34 4 28 5 30 7 29 9 23 8 26 11 25 12 19 10 26 16 12 8 17 12 30 24 12 11 8 7 22 22 7 8 12 14 13 16 13 18 12 18 8 13 14 24 13 26 12 29 11 30 10 35 6 28 5 31 3 30 1 44-1 32-3 31-4 26-7 33-8 28-13 38-13 30-12 24-13 23-13 20-13 19-9 12-9 11-11 13-7 8-11 12-21 21-11 9-10 9-14 11-13 10-14 10-22 14-21 12-29 15-30 13-34 12-32 9-32 7-25 4-27 3h-38v-1l35-2 11-3 15-2 16-3 21-6 11-3v-2h-13l-7 2-13 1h-10l-6-2h-12l-1-7 4-2v-2h3v-2h2l1-4 2-6 2-4 16-4h4l-2-4v-3l3-7-5-2-1-4v-4h-3l2-7-1-4 3 1 2-4 2-1 2-9v-6l1-2 4-1 3-3h2v-2h2l1-5 7-6 5-4 4-6 3-6 7-3 15-1 3-2-8-1-4-3h-11l-14-3-9-2v-3l164-1 24-6 18-8 15-10 12-11 9-11 7-11 7-15 5-17 2-20v-413l-1-114-4-18-5-13-9-15-8-10-11-11-16-11-14-7-15-5-11-2-1-1-441-1v-1l136-1 29-1h24l22-1 46-5-1-4h-2l-3 2h-17v-2l-4-2-5-2 3-7 2-3 5-1 3-9 3-1v-2l4-1 2 1v-5l5-4 2-3 7 2 3-1-1-7 5-5-3-4 1-5 2-2v-7l-1-2 2-1-2-5 3-5 1-5 5-5 7-2 8-5 1-2h2l2-6-1-2 5-1 3-3 12 4 11-1h3l-11-4-1-2 9 2v-2l-5-1-7-2-7-4-15-5-11-3-9-2-3-1-9-2-7-1-7-2-2-2-3 1h-10v-2l-5 1-2-1h-13l-10-2-11-2z" fill="#D3611F"/>
<path transform="translate(755,205)" d="m0 0h538l18 4 17 7 14 9 10 8 12 12 10 15 6 12 4 11 3 15 1 114v413l-2 20-5 17-9 19-9 12-12 13-10 8-15 9-20 8-16 3h-167l-6-4-3-4-1-3v-258l4-6 8-5 88-1 2-8 9-73h-99l-7-3-4-5-1-3v-79l3-17 5-12 8-11 9-7 12-6 18-4 54-1 1-68-84 1-18 3-18 5-13 6-12 7-8 7h-2v2h-2v2h-2l-2 4-7 9-8 14-6 16-5 25-1 15-1 90-2 5-5 5-10 2h-64l1 70 1 11 70 1 6 3 4 6 1 9-1 252-4 6-4 3-3 1h-264l-17-3-16-5-15-8-11-8-10-9-10-11-9-14-7-15-4-13-2-12v-534l4-20 7-18 9-15 11-12 11-11 15-10 18-8 16-4zm6 28-17 3-15 6-15 10-8 8-9 14-6 14-3 13v536l3 15 6 15 10 14 9 9 14 9 10 4 11 3 8 1 184 1 5-1h9l4 1 14-1h31v-222l-53-1-10-3-8-6-6-8-4-11v-79l2-11 6-9 8-7 9-4 54-1 1-1 1-76 4-27 6-21 7-17 9-15 11-14 12-12 14-10 16-9 20-8 16-4 22-3h82l12 5 3 3h2l2 4 5 8 2 8v69l-3 10-4 6-8 8-7 3-45 1-18 1-11 3-7 4-4 7-2 10v65l86 1 14 7 7 9 3 7v15l-8 61-2 15-4 10-7 8-9 5-5 1-75 1v222l1 1h139l20-3 15-6 11-7 10-9 8-10 8-16 4-15v-544l-3-12-8-16-8-11-9-8-13-8-17-6-11-2z" fill="#FAFAFA"/>
<path transform="translate(842,234)" d="m0 0h452l12 3 13 5 15 10 7 7 9 14 6 14 2 9v544l-4 15-8 16-9 11-10 9-14 8-11 4-20 3h-139l-1-1v-222l75-1 9-3 8-6 6-9 3-10 4-33 5-39v-15l-5-10-5-6-14-7-86-1v-65l3-12 4-6 8-4 9-2 18-1 45-1 8-4 9-9 4-9 1-5v-69l-3-10-4-6-2-4-14-7-3-1h-82l-22 3-19 5-19 8-4-1 3-3h3v-2l4-1v-2l7-4 9-3 14-5-32 2-11-2 2-4h4l-3-3 2-4 3-5 6-5 3-6-1-5-1-9 2-2-2-4 5-5 1-3 3-1 3 2 1-3h3l1-4 8 1 1-4 9-3 1-3 13-3 11-1 3-2-2-1h-7v-3l-6-1h-23l-10-2-34-1-33-2-12-1-185-1z" fill="#D3611F"/>
<path transform="translate(1139,356)" d="m0 0h84v68l-1 1-54 1-18 4-14 7-8 7-7 11-4 10-3 17v79l3 6 4 3 4 1 99 1v9l-9 70-2 3-88 1-8 5-3 5v258l3 6 6 4 165 1v1l-162 1v2l17 3 8 1h7l4 3 10 1-5 4-15 1-7 3-4 8-6 7-6 4-3 3-1 4h-2v2l-4 1-1 3h-4v9l-2 9-4 2-1 2-2 1 1 4-3 5h3l1 7 6 3-3 8 1 2h-2l3 4-5 1-16 4-3 9-2 4h-2v2h-3v2l-3 2v7l4-1h8l6 2h14l13-2 7-1 9 1v2l-7 3-23 6-6 2-17 3-13 2-8 2-16 1 9 1v1h-66l-32-3-37-6-32-7-36-11-25-9-23-10-1-2 10 3 11 4 3 1v2h5v2l3-1 7 1-2-5-7-1-10-5-11-5-6-3-14-8v-2h-2l-2-4-8-4-5-5-4-7-1-5 2-6v-3l-3-1-4-8-2-11 5-3 5-5 6-3h2l1-8 4-5 10-3 5-3 8-1-18-4-2-2-25-1v-1l252-1 10-3 4-5 1-2 1-256-2-7-2-4-6-2-70-1-1-1-1-11v-70l64-1 10-2 3-1 2-4 1-4 1-90 2-21 4-19 8-20 10-16 6-7h2v-2h2v-2l10-8 13-8 18-7 16-4z" fill="#D67626"/>
<path transform="translate(990,44)" d="m0 0h66v1l-11 1 10 2 13 1h10l4 1v2l14-2 3 3 10 1 4 2 9 1 3 2 11 2 17 5 12 6 8 3 4 1v2l-8-1 9 3 8 1v1l-13 1-7 1-12-4h-2l-1 3-4 1 1 2-3 5h-2l-2 4-4 1-1 2-4 2-5 1-4 4-2 6-2 5 2 5-2 1 1 5-1 4-2 2 1 5 2 3-4 5h-2l2 4-1 3-5 2-5-2-1 4h-3l-1 2h-1l-1 5h-6v2l-3 3-3 8-3 1-2-1-2 4-2 6 5 2 3 2v2l17-1 5-3 2 3-1 4-26 3-25 2-25 1h-17l-35 1 312 1v1l-537 1-18 4-17 7-4 2-3-1 11-6h2l1-3 11-5 9-2v-2l12-4 2-3h-6l-2-5 2-8 10-3 5-3 5-9 6-2 1-11 2-4 5-2v-2l3-1 3-6 3-1-1-5v-3h2l-1-9h2l-1-5 12-6 2-3-4-1 1-4 3-2-8 1-10 3-11 6-9 3-12 5-8 4h-2v-2l17-10 27-14 30-13 25-9 31-10 24-6 31-6 29-4z" fill="#D67626"/>
<path transform="translate(753,234)" d="m0 0 25 1 5 2 1 1 24 4 7 2-3 2-9 1-2 4-3 3-12 2-2 13v4l-2 8-2-1-1 4 5 4 1 6-1 5 1 4-3 4h-2l-1 6-2 3-1 4-3 3h-2v5l1 1v8l-1 6-3-1-2 1 1 5-4 2-1 6 1 9-4 4 1 1v5l-4 2v8l-2 12 2 9-1 5v19l-1 9-1 6 2 8-2 6 2 6h-2l4 4-1 5-4 1 2 11 1 3h2l1 7-2 6-2 1-1 5h2v2h-2l2 6v17l3 4-2 10-1 9v2l1 1-1 8-2 4 2 4v2l1 4 1 3-3 1-1 6 1 2h-2l2 9h4v7l-1 6h-2v8l-1 6 4 9-2 5-1 10-2 5-3 3v5l3 2v2h2l1 5 1 9-1 4 1 3-1 7 2 3 1 7-2 18 1 7-1 3 5 5v3l-2 6-2 13-2 4-2 2 4 5-1 7-3 3-2 8 7-1 2 2 2 10 1 2h-2v2h5l2 3v2l2 1-5 9v5l3 2v9l3 8-1 2-4 2 2 7v11l-4 4-1 4-3 4 1 5 5 5 7 5 12 2-2 2-7 4h-3v2l135 1v1h-150l-12-2-15-5-13-8-10-9-9-11-7-14-3-9-2-12v-536l4-16 8-16 8-11 7-7 16-10 13-5z" fill="#DA872B"/>
<path transform="translate(1143,573)" d="m0 0h81v8l-9 70-2 3-88 1-8 5-3 5v258l3 6 6 4v2l-5 1-1-3-5-1-3-5-2-11v-254l3-6 7-9-11 1-1-2h-3l2-4 3-3 1-8 2-3 1-1-1-2h2l-2-11h5l3 2 2-4 1-1h7l-1-3 1-2h-7v-2h2l-1-7 5 1 5-2 4-1 8-4 14-5 30-3 8-1-22-1-3-1h-14l-15-4-3-2z" fill="#D3621F"/>
<path transform="translate(1139,356)" d="m0 0h84v68l-1 1-54 1-18 4-14 7-8 7-7 11-4 10-2 11h-2l-1 3-2-3v-8l3-10 3-3 5-9 3-2 1-4 7-8 7-7 8-4-10 1-5 2-7 2-6 7-7 8-2 1 2-6 5-4 1-2-7 4-2-5 4-8 3-9v-3l-4 2-3 3v-6l3-3 5-1 1-6 3-2 3 1v-2l3-1-5-2v-5l5-1 2-2 2-6h2v-2l4-1 16-5 23-4h-16v-2l-13-1v-1h-10l-16 4-26 7h-5l2-3h2v-2l15-6 16-4z" fill="#D3621F"/>
<path transform="translate(1142,683)" d="m0 0h74v1l-61 1 3 3 14 3 1 1 14 1-3 2-21 5-3 1-2 5-1 14v7l-1 7 1 7-1 6 1 4v17l-1 20v52l-1 11-1 8h-2v-57l-1-4 1-4v-18l1-2h-2l-1-4v-23l-2-41-1-8-1-2v-9l3-2-6-1v221h-1z" fill="#D67927"/>
<path transform="translate(1151,459)" d="m0 0 2 1-2 2 5-2 19 1 4 2-5 4 6-2 7-1 3 2-12 3-12 7-3 3-3 10-2 18h-2l-1 21 1 4-3-3-2-7-1-9-2-5-1-10v-8l-1-7v-14l-2 3 1-6 4-6z" fill="#D57525"/>
<path transform="translate(1111,484)" d="m0 0h1l1 76 5 8 3 2-1 2-4-1-4-2-4-8v-54l1-18z" fill="#D3621F"/>
<path transform="translate(1041,45)" d="m0 0h28l34 4v1l-11 2h-10v-2l-5 1-2-1h-13l-10-2-11-2z" fill="#D46821"/>
<path transform="translate(1035,483)" d="m0 0h1l2 20v23l-1 35-2 5h-2v-4h2z" fill="#D3611F"/>
<path transform="translate(806,1047)" d="m0 0 10 3 11 4 3 1v2h5v2h2v2l-9-3-21-9z" fill="#D77B27"/>
<path transform="translate(688,901)" d="m0 0 4 2 11 10 9 6-1 2-9-6-7-5v-2l-4-2-1-3h-2z" fill="#D87D28"/>
<path transform="translate(932,51)" d="m0 0h11l-4 2-16 3-3-1 1-2z" fill="#D56C22"/>
<path transform="translate(781,1035)" d="m0 0 7 2 11 5 4 4-5-1-17-9z" fill="#D77A27"/>
<path transform="translate(1102,426)" d="m0 0 5 1 1 2-2 4-6 4z" fill="#D3611F"/>
<path transform="translate(1031,385)" d="m0 0 1 3-7 11h-3l5-9z" fill="#D56C22"/>
<path transform="translate(600,879)" d="m0 0 5 5 9 12h-3l-11-14z" fill="#D77C28"/>
<path transform="translate(1133,599)" d="m0 0 4 1-3 5-4 2v-2l-4-1 2-4 5 3z" fill="#D67626"/>
<path transform="translate(737,128)" d="m0 0 3 1-10 7-4 1v-2z" fill="#D77C28"/>
<path transform="translate(763,112)" d="m0 0 3 1-3 3-8 4h-2v-2z" fill="#D87D28"/>
<path transform="translate(767,876)" d="m0 0 4 2 1 2 2-1-1 5-9-6z" fill="#DA872B"/>
<path transform="translate(1096,1017)" d="m0 0h6l1 3-1 2-6-2z" fill="#D3611F"/>
<path transform="translate(1068,385)" d="m0 0h3v3h-2v2l-6 3 1-4h2v-2h2z" fill="#D46B22"/>
</svg>
